<?xml version="1.0" encoding="UTF-8"?>
<svg version="1.1" xmlns="http://www.w3.org/2000/svg" width="32" height="32">
<path d="M0 0 C10.56 0 21.12 0 32 0 C32 10.56 32 21.12 32 32 C21.44 32 10.88 32 0 32 C0 21.44 0 10.88 0 0 Z " fill="#FDFDFD" transform="translate(0,0)"/>
<path d="M0 0 C2.4375 0.1875 2.4375 0.1875 5 1 C7.66181082 4.2955753 7.15640774 7.93339881 7 12 C7.66 12 8.32 12 9 12 C9.02692484 14.29160319 9.04636124 16.58329546 9.0625 18.875 C9.07410156 20.15117187 9.08570312 21.42734375 9.09765625 22.7421875 C9 26 9 26 8 28 C1.73 28 -4.54 28 -11 28 C-10.20139067 20.81251607 -9.59089659 17.19562229 -7 11 C-6.34 11 -5.68 11 -5 11 C-4.8453125 10.195625 -4.8453125 10.195625 -4.6875 9.375 C-3.74123855 6.1060968 -2.44441464 2.44441464 0 0 Z " fill="#A19497" transform="translate(17,4)"/>
<path d="M0 0 C2.4375 0.1875 2.4375 0.1875 5 1 C7.66181082 4.2955753 7.15640774 7.93339881 7 12 C4.525 11.505 4.525 11.505 2 11 C2.66 8.03 3.32 5.06 4 2 C3.01 2 2.02 2 1 2 C1 2.99 1 3.98 1 5 C0.34 5 -0.32 5 -1 5 C-1 8.3 -1 11.6 -1 15 C-2.98 15.33 -4.96 15.66 -7 16 C-7 19.96 -7 23.92 -7 28 C-8.32 27.67 -9.64 27.34 -11 27 C-10.47606294 21.13190493 -9.23891142 16.45126259 -7 11 C-6.34 11 -5.68 11 -5 11 C-4.8453125 10.195625 -4.8453125 10.195625 -4.6875 9.375 C-3.74123855 6.1060968 -2.44441464 2.44441464 0 0 Z " fill="#635959" transform="translate(17,4)"/>
<path d="M0 0 C0.33 0 0.66 0 1 0 C1.33 1.65 1.66 3.3 2 5 C2.66 4.67 3.32 4.34 4 4 C4 4.99 4 5.98 4 7 C2.02 7.33 0.04 7.66 -2 8 C-2 11.96 -2 15.92 -2 20 C-3.32 19.67 -4.64 19.34 -6 19 C-5.47606294 13.13190493 -4.23891142 8.45126259 -2 3 C-1.34 3 -0.68 3 0 3 C0 2.01 0 1.02 0 0 Z " fill="#666B6C" transform="translate(12,12)"/>
<path d="M0 0 C0.99 0 1.98 0 3 0 C3.25 5.625 3.25 5.625 1 9 C3.31 9.33 5.62 9.66 8 10 C8 10.99 8 11.98 8 13 C4.7 12.01 1.4 11.02 -2 10 C-2 7.69 -2 5.38 -2 3 C-1.34 3 -0.68 3 0 3 C0 2.01 0 1.02 0 0 Z " fill="#7A635C" transform="translate(18,6)"/>
<path d="M0 0 C1.32 0 2.64 0 4 0 C5 5.75 5 5.75 5 8 C5.32852082 10.55936559 5.32852082 10.55936559 6 13 C6.66 13.33 7.32 13.66 8 14 C6.109375 13.78515625 6.109375 13.78515625 4 13 C2.953125 10.93359375 2.953125 10.93359375 2.25 8.4375 C1.88648438 7.19806641 1.88648438 7.19806641 1.515625 5.93359375 C1.34546875 5.29550781 1.1753125 4.65742188 1 4 C0.34 4 -0.32 4 -1 4 C-0.67 2.68 -0.34 1.36 0 0 Z " fill="#D2C7C8" transform="translate(17,18)"/>
<path d="M0 0 C0.66 0.33 1.32 0.66 2 1 C2 3.31 2 5.62 2 8 C0.35 7.67 -1.3 7.34 -3 7 C-1.125 2.25 -1.125 2.25 0 0 Z " fill="#2B292A" transform="translate(22,8)"/>
<path d="M0 0 C0.99 0 1.98 0 3 0 C3 1.65 3 3.3 3 5 C1.68 5 0.36 5 -1 5 C-1.33 5.66 -1.66 6.32 -2 7 C-2 5.68 -2 4.36 -2 3 C-1.34 3 -0.68 3 0 3 C0 2.01 0 1.02 0 0 Z " fill="#B69991" transform="translate(18,6)"/>
<path d="M0 0 C0.99 0.33 1.98 0.66 3 1 C3.70491267 3.32206525 4.37212429 5.65593068 5 8 C5.66 8.33 6.32 8.66 7 9 C5.109375 8.75390625 5.109375 8.75390625 3 8 C1.953125 6.15234375 1.953125 6.15234375 1.25 3.9375 C1.00765625 3.20402344 0.7653125 2.47054688 0.515625 1.71484375 C0.34546875 1.14894531 0.1753125 0.58304688 0 0 Z " fill="#CABDBC" transform="translate(18,23)"/>
<path d="M0 0 C0.66 0.66 1.32 1.32 2 2 C1.625 5.125 1.625 5.125 1 8 C0.34 7.67 -0.32 7.34 -1 7 C-1.04254356 5.00045254 -1.04080783 2.99958364 -1 1 C-0.67 0.67 -0.34 0.34 0 0 Z " fill="#2E2B2E" transform="translate(14,10)"/>
</svg>
